<svg width="97" height="30" viewBox="0 0 97 30" fill="none" xmlns="http://www.w3.org/2000/svg">
<rect x="0.5" y="0.5" width="96" height="29" rx="1.5" fill="white"/>
<rect x="0.5" y="0.5" width="96" height="29" rx="1.5" stroke="#6D6D6D"/>
<g clip-path="url(#clip0_4547_209398)">
<path d="M13.0051 14.6152L6.0621 21.888C6.14007 22.1643 6.28018 22.419 6.47173 22.6329C6.66327 22.8467 6.90118 23.0139 7.16726 23.1217C7.43334 23.2295 7.72056 23.275 8.00695 23.2549C8.29333 23.2347 8.57132 23.1493 8.81964 23.0052L16.6318 18.5568L13.0051 14.6152Z" fill="#EA4335"/>
<path d="M20.0256 13.378L16.6474 11.4434L12.8448 14.7797L16.6628 18.5454L20.0153 16.6315C20.3123 16.476 20.5611 16.2422 20.7347 15.9554C20.9082 15.6687 21 15.3399 21 15.0047C21 14.6695 20.9082 14.3407 20.7347 14.054C20.5611 13.7672 20.3123 13.5334 20.0153 13.3779L20.0256 13.378Z" fill="#FBBC04"/>
<path d="M6.0621 8.08594C6.02016 8.24106 5.99926 8.40112 5.99999 8.56181V21.4106C6.0004 21.5712 6.02127 21.7312 6.0621 21.8865L13.2431 14.8L6.0621 8.08594Z" fill="#4285F4"/>
<path d="M13.0568 14.9872L16.6473 11.4439L8.84554 6.97474C8.552 6.80287 8.21815 6.71185 7.87798 6.71094C7.03382 6.7093 6.29167 7.26947 6.0621 8.08172L13.0568 14.9872Z" fill="#34A853"/>
</g>
<path d="M32.3672 9.5H31.1875V7.125H28.6484V9.5H27.4688V3.86328H28.6484V6.15234H31.1875V3.86328H32.3672V9.5ZM35.0859 6.06641C34.5859 6.06641 34.2266 6.44531 34.1875 6.96875H35.9648C35.9414 6.43359 35.5938 6.06641 35.0859 6.06641ZM35.9805 8.21875H37.0273C36.9023 9.03906 36.1523 9.58984 35.1172 9.58984C33.8281 9.58984 33.0547 8.76562 33.0547 7.42578C33.0547 6.08984 33.8359 5.22266 35.0742 5.22266C36.293 5.22266 37.0625 6.04688 37.0625 7.32031V7.66797H34.1758V7.73828C34.1758 8.33594 34.5547 8.74609 35.1367 8.74609C35.5547 8.74609 35.875 8.53906 35.9805 8.21875ZM37.6523 9.5V5.3125H38.7539V6.07031H38.7773C38.9531 5.56641 39.4023 5.23438 39.9727 5.23438C40.5781 5.23438 41 5.54688 41.1406 6.09375H41.1641C41.3516 5.56641 41.8516 5.23438 42.4648 5.23438C43.2852 5.23438 43.8359 5.79688 43.8359 6.64062V9.5H42.6953V6.92578C42.6953 6.44141 42.4531 6.17578 42.0117 6.17578C41.5781 6.17578 41.293 6.49219 41.293 6.95703V9.5H40.1953V6.89062C40.1953 6.44141 39.9414 6.17578 39.5195 6.17578C39.0859 6.17578 38.793 6.50391 38.793 6.97266V9.5H37.6523ZM46.4375 6.06641C45.9375 6.06641 45.5781 6.44531 45.5391 6.96875H47.3164C47.293 6.43359 46.9453 6.06641 46.4375 6.06641ZM47.332 8.21875H48.3789C48.2539 9.03906 47.5039 9.58984 46.4688 9.58984C45.1797 9.58984 44.4062 8.76562 44.4062 7.42578C44.4062 6.08984 45.1875 5.22266 46.4258 5.22266C47.6445 5.22266 48.4141 6.04688 48.4141 7.32031V7.66797H45.5273V7.73828C45.5273 8.33594 45.9062 8.74609 46.4883 8.74609C46.9062 8.74609 47.2266 8.53906 47.332 8.21875ZM49.0039 9.5V5.3125H50.1055V6.05859H50.1289C50.3516 5.53906 50.793 5.23438 51.4375 5.23438C52.3672 5.23438 52.8906 5.82031 52.8906 6.80078V9.5H51.75V7.03906C51.75 6.49219 51.4922 6.17969 50.9805 6.17969C50.4688 6.17969 50.1445 6.55469 50.1445 7.09766V9.5H49.0039ZM56.4766 9.5H55.2969V3.86328H56.4766V9.5ZM55.8867 3.40234C55.5586 3.40234 55.3047 3.14062 55.3047 2.82031C55.3047 2.5 55.5586 2.23828 55.8867 2.23828C56.2148 2.23828 56.4688 2.5 56.4688 2.82031C56.4688 3.14062 56.2148 3.40234 55.8867 3.40234ZM57.3164 9.5V5.3125H58.418V6.05859H58.4414C58.6641 5.53906 59.1055 5.23438 59.75 5.23438C60.6797 5.23438 61.2031 5.82031 61.2031 6.80078V9.5H60.0625V7.03906C60.0625 6.49219 59.8047 6.17969 59.293 6.17969C58.7812 6.17969 58.457 6.55469 58.457 7.09766V9.5H57.3164ZM63.4805 9.56641C62.4336 9.56641 61.7734 8.73828 61.7734 7.39844C61.7734 6.07031 62.4375 5.24609 63.4883 5.24609C64.0938 5.24609 64.5625 5.56641 64.7656 6.03125H64.7891V3.86328H65.9297V9.5H64.8047V8.78125H64.7852C64.582 9.24219 64.0977 9.56641 63.4805 9.56641ZM63.8672 6.16016C63.293 6.16016 62.9414 6.64062 62.9414 7.40625C62.9414 8.17578 63.293 8.64844 63.8672 8.64844C64.4336 8.64844 64.7969 8.17188 64.7969 7.40625C64.7969 6.64453 64.4336 6.16016 63.8672 6.16016ZM66.7109 9.5V5.3125H67.8516V9.5H66.7109ZM67.2812 4.85156C66.9375 4.85156 66.6719 4.58984 66.6719 4.26172C66.6719 3.92969 66.9375 3.67188 67.2812 3.67188C67.625 3.67188 67.8906 3.92969 67.8906 4.26172C67.8906 4.58984 67.625 4.85156 67.2812 4.85156ZM68.6133 9.5V5.3125H69.7148V6.06641H69.7383C69.8867 5.53516 70.2422 5.24609 70.7344 5.24609C70.8672 5.24609 70.9805 5.26562 71.0586 5.28906V6.29297C70.9648 6.25391 70.8086 6.22656 70.6445 6.22656C70.082 6.22656 69.7539 6.57031 69.7539 7.16016V9.5H68.6133ZM71.5469 9.5V5.3125H72.6875V9.5H71.5469ZM72.1172 4.85156C71.7734 4.85156 71.5078 4.58984 71.5078 4.26172C71.5078 3.92969 71.7734 3.67188 72.1172 3.67188C72.4609 3.67188 72.7266 3.92969 72.7266 4.26172C72.7266 4.58984 72.4609 4.85156 72.1172 4.85156ZM73.4492 9.5V5.3125H74.5508V6.05859H74.5742C74.7969 5.53906 75.2383 5.23438 75.8828 5.23438C76.8125 5.23438 77.3359 5.82031 77.3359 6.80078V9.5H76.1953V7.03906C76.1953 6.49219 75.9375 6.17969 75.4258 6.17969C74.9141 6.17969 74.5898 6.55469 74.5898 7.09766V9.5H73.4492Z" fill="black"/>
<path d="M34.7617 19.9492C34.7617 22.252 33.3672 23.6465 31.0117 23.6465C28.4863 23.6465 26.9395 21.9941 26.9395 19.2461C26.9395 16.5391 28.4863 14.8984 30.9707 14.8984C32.9453 14.8984 34.4336 16.0645 34.6855 17.7754H32.9102C32.6523 16.8906 31.9316 16.3633 30.9766 16.3633C29.582 16.3633 28.7441 17.4238 28.7441 19.2227C28.7441 21.0566 29.6348 22.1758 31.041 22.1758C32.1953 22.1758 32.998 21.4668 33.0332 20.418L33.0391 20.2832H31.1992V18.9941H34.7617V19.9492ZM38.6699 23.6348C36.7715 23.6348 35.5586 22.416 35.5586 20.3535C35.5586 18.3203 36.7891 17.084 38.6699 17.084C40.5508 17.084 41.7812 18.3145 41.7812 20.3535C41.7812 22.4219 40.5684 23.6348 38.6699 23.6348ZM38.6699 22.3281C39.5078 22.3281 40.041 21.6191 40.041 20.3594C40.041 19.1113 39.502 18.3906 38.6699 18.3906C37.8379 18.3906 37.293 19.1113 37.293 20.3594C37.293 21.6191 37.8262 22.3281 38.6699 22.3281ZM45.5488 23.6348C43.6504 23.6348 42.4375 22.416 42.4375 20.3535C42.4375 18.3203 43.668 17.084 45.5488 17.084C47.4297 17.084 48.6602 18.3145 48.6602 20.3535C48.6602 22.4219 47.4473 23.6348 45.5488 23.6348ZM45.5488 22.3281C46.3867 22.3281 46.9199 21.6191 46.9199 20.3594C46.9199 19.1113 46.3809 18.3906 45.5488 18.3906C44.7168 18.3906 44.1719 19.1113 44.1719 20.3594C44.1719 21.6191 44.7051 22.3281 45.5488 22.3281ZM52.4453 22.1641C53.3008 22.1641 53.8457 21.4844 53.8457 20.3477C53.8457 19.2168 53.3008 18.4902 52.4453 18.4902C51.6016 18.4902 51.0684 19.2051 51.0684 20.3477C51.0684 21.4961 51.5957 22.1641 52.4453 22.1641ZM52.416 25.8672C50.7637 25.8672 49.6445 25.0645 49.5098 23.9453H51.1855C51.3203 24.3789 51.8125 24.6777 52.4629 24.6777C53.3477 24.6777 53.8398 24.1855 53.8398 23.459V22.3574H53.8047C53.5117 23.0254 52.7734 23.4824 51.8652 23.4824C50.3301 23.4824 49.3164 22.2988 49.3164 20.3359C49.3164 18.3438 50.3008 17.1191 51.8945 17.1191C52.7969 17.1191 53.5059 17.5938 53.834 18.3145H53.8633V17.2188H55.5508V23.4121C55.5508 24.9121 54.2969 25.8672 52.416 25.8672ZM56.7109 23.5V15.0449H58.4219V23.5H56.7109ZM62.3945 18.3496C61.6445 18.3496 61.1055 18.918 61.0469 19.7031H63.7129C63.6777 18.9004 63.1562 18.3496 62.3945 18.3496ZM63.7363 21.5781H65.3066C65.1191 22.8086 63.9941 23.6348 62.4414 23.6348C60.5078 23.6348 59.3477 22.3984 59.3477 20.3887C59.3477 18.3848 60.5195 17.084 62.377 17.084C64.2051 17.084 65.3594 18.3203 65.3594 20.2305V20.752H61.0293V20.8574C61.0293 21.7539 61.5977 22.3691 62.4707 22.3691C63.0977 22.3691 63.5781 22.0586 63.7363 21.5781ZM68.7695 15.0449H72.209C73.9434 15.0449 75.1387 16.1992 75.1387 17.9395C75.1387 19.6738 73.9023 20.834 72.1211 20.834H70.5391V23.5H68.7695V15.0449ZM70.5391 16.4453V19.4512H71.7344C72.748 19.4512 73.3398 18.9121 73.3398 17.9453C73.3398 16.9844 72.7539 16.4453 71.7402 16.4453H70.5391ZM76.082 23.5V15.0449H77.793V23.5H76.082ZM81.373 22.3633C82.1172 22.3633 82.7324 21.877 82.7324 21.1973V20.7402L81.4082 20.8223C80.7695 20.8691 80.4062 21.1562 80.4062 21.6016C80.4062 22.0703 80.793 22.3633 81.373 22.3633ZM80.8105 23.5996C79.6152 23.5996 78.707 22.8262 78.707 21.6953C78.707 20.5527 79.5859 19.8906 81.1504 19.7969L82.7324 19.7031V19.2871C82.7324 18.7012 82.3223 18.3613 81.6777 18.3613C81.0391 18.3613 80.6348 18.6777 80.5527 19.1406H78.9883C79.0527 17.9219 80.0898 17.084 81.7539 17.084C83.3652 17.084 84.4141 17.916 84.4141 19.1816V23.5H82.7617V22.5391H82.7266C82.375 23.207 81.5957 23.5996 80.8105 23.5996ZM86.2891 25.8262C86.2305 25.8262 85.6973 25.8203 85.6445 25.8086V24.4902C85.6973 24.502 86.0078 24.502 86.0723 24.502C86.6992 24.502 87.0098 24.3027 87.127 23.8047C87.127 23.7812 87.1914 23.5293 87.1797 23.5059L84.9941 17.2188H86.875L88.2109 22.1289H88.2402L89.5762 17.2188H91.3809L89.2188 23.6406C88.6797 25.252 87.8945 25.8262 86.2891 25.8262Z" fill="black"/>
<defs>
<clipPath id="clip0_4547_209398">
<rect width="15" height="16.5789" fill="white" transform="translate(6 6.71094)"/>
</clipPath>
</defs>
</svg>
