<svg width="32" height="32" viewBox="0 0 32 32" fill="none" xmlns="http://www.w3.org/2000/svg">
<path fill-rule="evenodd" clip-rule="evenodd" d="M16 4C9.40008 4 4.00012 9.39996 4.00012 15.9999C4.00012 22.5998 9.40008 27.9998 16 27.9998C22.6 27.9998 27.9999 22.5998 27.9999 15.9999C27.9999 9.39996 22.6 4 16 4ZM21.925 14.4999V14.1249C22.45 13.6749 22.975 13.2249 23.2 12.8499C22.675 13.0749 22.15 13.2249 21.55 13.2999C22.15 12.9249 22.6 12.3999 22.825 11.7249C22.3 12.0249 21.7 12.2499 21.025 12.3999C20.5 11.8749 19.75 11.4999 18.925 11.4999C17.35 11.4999 16.075 12.7749 16.075 14.3499C16.075 14.5749 16.075 14.7999 16.15 15.0249C13.75 14.8749 11.6501 13.7499 10.2251 12.0249C10.0001 12.3999 9.85007 12.9249 9.85007 13.4499C9.85007 14.4249 10.3751 15.3249 11.1251 15.8499C10.6751 15.8499 10.2251 15.6999 9.85007 15.4749C9.85007 16.8249 10.9001 17.9499 12.1751 18.2499C11.9501 18.3249 11.6501 18.3249 11.4251 18.3249C11.3501 18.3249 11.2563 18.3061 11.1626 18.2874C11.0688 18.2686 10.9751 18.2499 10.9001 18.2499C11.2751 19.4499 12.3251 20.2749 13.6 20.2749C12.5501 21.0249 11.3501 21.4749 10.0001 21.4749C9.88757 21.4749 9.77507 21.4561 9.66258 21.4374C9.55008 21.4186 9.43758 21.3999 9.32508 21.3999C10.6001 22.2248 12.1001 22.6748 13.75 22.6748C19.075 22.6748 21.925 18.3249 21.925 14.4999Z" fill="black"/>
<path d="M21.925 14.1249V14.4999C21.925 18.3249 19.075 22.6748 13.75 22.6748C12.1001 22.6748 10.6001 22.2248 9.32508 21.3999C9.43758 21.3999 9.55008 21.4186 9.66258 21.4374C9.77507 21.4561 9.88757 21.4749 10.0001 21.4749C11.3501 21.4749 12.5501 21.0249 13.6 20.2749C12.3251 20.2749 11.2751 19.4499 10.9001 18.2499C10.9751 18.2499 11.0688 18.2686 11.1626 18.2874C11.2563 18.3061 11.3501 18.3249 11.4251 18.3249C11.6501 18.3249 11.9501 18.3249 12.1751 18.2499C10.9001 17.9499 9.85007 16.8249 9.85007 15.4749C10.2251 15.6999 10.6751 15.8499 11.1251 15.8499C10.3751 15.3249 9.85007 14.4249 9.85007 13.4499C9.85007 12.9249 10.0001 12.3999 10.2251 12.0249C11.6501 13.7499 13.75 14.8749 16.15 15.0249C16.075 14.7999 16.075 14.5749 16.075 14.3499C16.075 12.7749 17.35 11.4999 18.925 11.4999C19.75 11.4999 20.5 11.8749 21.025 12.3999C21.7 12.2499 22.3 12.0249 22.825 11.7249C22.6 12.3999 22.15 12.9249 21.55 13.2999C22.15 13.2249 22.675 13.0749 23.2 12.8499C22.975 13.2249 22.45 13.6749 21.925 14.1249Z" fill="black"/>
<path d="M17.242 15.0096L21.1507 10.4658H20.2244L16.8305 14.411L14.1197 10.4658H10.993L15.0923 16.4317L10.993 21.1964H11.9194L15.5036 17.0302L18.3663 21.1964H21.493L17.2417 15.0096H17.242ZM15.9732 16.4842L15.5578 15.8902L12.2531 11.1631H13.6759L16.3428 14.978L16.7581 15.5721L20.2248 20.5308H18.8022L15.9732 16.4844V16.4842Z" fill="white"/>
</svg>
