<svg width="97" height="30" viewBox="0 0 97 30" fill="none" xmlns="http://www.w3.org/2000/svg">
<rect x="0.5" y="0.5" width="96" height="29" rx="1.5" fill="white"/>
<rect x="0.5" y="0.5" width="96" height="29" rx="1.5" stroke="#6D6D6D"/>
<path d="M18.6371 23.278C17.6571 24.228 16.5871 24.078 15.5571 23.628C14.4671 23.168 13.4671 23.148 12.3171 23.628C10.8771 24.248 10.1171 24.068 9.25708 23.278C4.37708 18.248 5.09708 10.588 10.6371 10.308C11.9871 10.378 12.9271 11.048 13.7171 11.108C14.8971 10.868 16.0271 10.178 17.2871 10.268C18.7971 10.388 19.9371 10.988 20.6871 12.068C17.5671 13.938 18.3071 18.048 21.1671 19.198C20.5971 20.698 19.8571 22.188 18.6271 23.288L18.6371 23.278ZM13.6171 10.248C13.4671 8.01805 15.2771 6.17805 17.3571 5.99805C17.6471 8.57805 15.0171 10.498 13.6171 10.248Z" fill="black"/>
<path d="M32.5343 10.5H31.3546V8.125H28.8155V10.5H27.6358V4.86328H28.8155V7.15234H31.3546V4.86328H32.5343V10.5ZM35.253 7.06641C34.753 7.06641 34.3936 7.44531 34.3546 7.96875H36.1319C36.1085 7.43359 35.7608 7.06641 35.253 7.06641ZM36.1476 9.21875H37.1944C37.0694 10.0391 36.3194 10.5898 35.2843 10.5898C33.9952 10.5898 33.2218 9.76562 33.2218 8.42578C33.2218 7.08984 34.003 6.22266 35.2413 6.22266C36.4601 6.22266 37.2296 7.04688 37.2296 8.32031V8.66797H34.3429V8.73828C34.3429 9.33594 34.7218 9.74609 35.3038 9.74609C35.7218 9.74609 36.0421 9.53906 36.1476 9.21875ZM37.8194 10.5V6.3125H38.921V7.07031H38.9444C39.1202 6.56641 39.5694 6.23438 40.1397 6.23438C40.7452 6.23438 41.1671 6.54688 41.3077 7.09375H41.3311C41.5186 6.56641 42.0186 6.23438 42.6319 6.23438C43.4522 6.23438 44.003 6.79688 44.003 7.64062V10.5H42.8624V7.92578C42.8624 7.44141 42.6202 7.17578 42.1788 7.17578C41.7452 7.17578 41.4601 7.49219 41.4601 7.95703V10.5H40.3624V7.89062C40.3624 7.44141 40.1085 7.17578 39.6866 7.17578C39.253 7.17578 38.9601 7.50391 38.9601 7.97266V10.5H37.8194ZM46.6046 7.06641C46.1046 7.06641 45.7452 7.44531 45.7061 7.96875H47.4835C47.4601 7.43359 47.1124 7.06641 46.6046 7.06641ZM47.4991 9.21875H48.546C48.421 10.0391 47.671 10.5898 46.6358 10.5898C45.3468 10.5898 44.5733 9.76562 44.5733 8.42578C44.5733 7.08984 45.3546 6.22266 46.5929 6.22266C47.8116 6.22266 48.5811 7.04688 48.5811 8.32031V8.66797H45.6944V8.73828C45.6944 9.33594 46.0733 9.74609 46.6554 9.74609C47.0733 9.74609 47.3936 9.53906 47.4991 9.21875ZM49.171 10.5V6.3125H50.2726V7.05859H50.296C50.5186 6.53906 50.9601 6.23438 51.6046 6.23438C52.5343 6.23438 53.0577 6.82031 53.0577 7.80078V10.5H51.9171V8.03906C51.9171 7.49219 51.6593 7.17969 51.1476 7.17969C50.6358 7.17969 50.3116 7.55469 50.3116 8.09766V10.5H49.171ZM56.6436 10.5H55.464V4.86328H56.6436V10.5ZM56.0538 4.40234C55.7257 4.40234 55.4718 4.14062 55.4718 3.82031C55.4718 3.5 55.7257 3.23828 56.0538 3.23828C56.3819 3.23828 56.6358 3.5 56.6358 3.82031C56.6358 4.14062 56.3819 4.40234 56.0538 4.40234ZM57.4835 10.5V6.3125H58.5851V7.05859H58.6085C58.8311 6.53906 59.2726 6.23438 59.9171 6.23438C60.8468 6.23438 61.3702 6.82031 61.3702 7.80078V10.5H60.2296V8.03906C60.2296 7.49219 59.9718 7.17969 59.4601 7.17969C58.9483 7.17969 58.6241 7.55469 58.6241 8.09766V10.5H57.4835ZM63.6476 10.5664C62.6007 10.5664 61.9405 9.73828 61.9405 8.39844C61.9405 7.07031 62.6046 6.24609 63.6554 6.24609C64.2608 6.24609 64.7296 6.56641 64.9327 7.03125H64.9561V4.86328H66.0968V10.5H64.9718V9.78125H64.9522C64.7491 10.2422 64.2647 10.5664 63.6476 10.5664ZM64.0343 7.16016C63.4601 7.16016 63.1085 7.64062 63.1085 8.40625C63.1085 9.17578 63.4601 9.64844 64.0343 9.64844C64.6007 9.64844 64.964 9.17188 64.964 8.40625C64.964 7.64453 64.6007 7.16016 64.0343 7.16016ZM66.878 10.5V6.3125H68.0186V10.5H66.878ZM67.4483 5.85156C67.1046 5.85156 66.839 5.58984 66.839 5.26172C66.839 4.92969 67.1046 4.67188 67.4483 4.67188C67.7921 4.67188 68.0577 4.92969 68.0577 5.26172C68.0577 5.58984 67.7921 5.85156 67.4483 5.85156ZM68.7804 10.5V6.3125H69.8819V7.06641H69.9054C70.0538 6.53516 70.4093 6.24609 70.9015 6.24609C71.0343 6.24609 71.1476 6.26562 71.2257 6.28906V7.29297C71.1319 7.25391 70.9757 7.22656 70.8116 7.22656C70.2491 7.22656 69.921 7.57031 69.921 8.16016V10.5H68.7804ZM71.714 10.5V6.3125H72.8546V10.5H71.714ZM72.2843 5.85156C71.9405 5.85156 71.6749 5.58984 71.6749 5.26172C71.6749 4.92969 71.9405 4.67188 72.2843 4.67188C72.628 4.67188 72.8936 4.92969 72.8936 5.26172C72.8936 5.58984 72.628 5.85156 72.2843 5.85156ZM73.6163 10.5V6.3125H74.7179V7.05859H74.7413C74.964 6.53906 75.4054 6.23438 76.0499 6.23438C76.9796 6.23438 77.503 6.82031 77.503 7.80078V10.5H76.3624V8.03906C76.3624 7.49219 76.1046 7.17969 75.5929 7.17969C75.0811 7.17969 74.7569 7.55469 74.7569 8.09766V10.5H73.6163Z" fill="black"/>
<path d="M33.4073 23.5L32.7628 21.4492H29.7921L29.1476 23.5H27.3311L30.2667 15.0449H32.3468L35.2882 23.5H33.4073ZM31.2569 16.6621L30.1729 20.125H32.3819L31.2979 16.6621H31.2569ZM39.6768 17.1191C41.2706 17.1191 42.2491 18.332 42.2491 20.3594C42.2491 22.3809 41.2765 23.5996 39.7061 23.5996C38.7921 23.5996 38.089 23.1543 37.755 22.4453H37.7198V25.5508H36.0089V17.2188H37.6964V18.3145H37.7315C38.0714 17.5762 38.7686 17.1191 39.6768 17.1191ZM39.1026 22.2227C39.9581 22.2227 40.4972 21.502 40.4972 20.3594C40.4972 19.2227 39.9581 18.4902 39.1026 18.4902C38.2647 18.4902 37.714 19.2344 37.714 20.3594C37.714 21.4961 38.2647 22.2227 39.1026 22.2227ZM46.8018 17.1191C48.3956 17.1191 49.3741 18.332 49.3741 20.3594C49.3741 22.3809 48.4015 23.5996 46.8311 23.5996C45.9171 23.5996 45.214 23.1543 44.88 22.4453H44.8448V25.5508H43.1339V17.2188H44.8214V18.3145H44.8565C45.1964 17.5762 45.8936 17.1191 46.8018 17.1191ZM46.2276 22.2227C47.0831 22.2227 47.6222 21.502 47.6222 20.3594C47.6222 19.2227 47.0831 18.4902 46.2276 18.4902C45.3897 18.4902 44.839 19.2344 44.839 20.3594C44.839 21.4961 45.3897 22.2227 46.2276 22.2227ZM52.4679 21.0918H54.1729C54.255 21.7891 54.9815 22.2461 55.919 22.2461C56.8624 22.2461 57.5069 21.7949 57.5069 21.1738C57.5069 20.623 57.1026 20.3184 56.0831 20.0898L54.9815 19.8496C53.4229 19.5156 52.6554 18.7246 52.6554 17.4883C52.6554 15.9297 54.003 14.8984 55.8897 14.8984C57.8585 14.8984 59.0948 15.9121 59.1241 17.4414H57.4659C57.4073 16.7266 56.7804 16.293 55.8956 16.293C55.0226 16.293 54.4366 16.709 54.4366 17.3359C54.4366 17.8574 54.8468 18.1504 55.8194 18.373L56.8448 18.5898C58.5382 18.9531 59.2765 19.6797 59.2765 20.9688C59.2765 22.6094 57.9464 23.6465 55.8487 23.6465C53.8155 23.6465 52.5206 22.6797 52.4679 21.0918ZM60.6768 15.7715H62.3878V17.2188H63.5479V18.5078H62.3878V21.5137C62.3878 21.9941 62.6222 22.2227 63.1261 22.2227C63.2784 22.2227 63.4366 22.2109 63.5421 22.1934V23.4531C63.3663 23.4941 63.0733 23.5234 62.7276 23.5234C61.2511 23.5234 60.6768 23.0312 60.6768 21.8066V18.5078H59.7921V17.2188H60.6768V15.7715ZM67.2745 23.6348C65.3761 23.6348 64.1632 22.416 64.1632 20.3535C64.1632 18.3203 65.3936 17.084 67.2745 17.084C69.1554 17.084 70.3858 18.3145 70.3858 20.3535C70.3858 22.4219 69.1729 23.6348 67.2745 23.6348ZM67.2745 22.3281C68.1124 22.3281 68.6456 21.6191 68.6456 20.3594C68.6456 19.1113 68.1065 18.3906 67.2745 18.3906C66.4425 18.3906 65.8976 19.1113 65.8976 20.3594C65.8976 21.6191 66.4308 22.3281 67.2745 22.3281ZM71.2706 23.5V17.2188H72.9229V18.3496H72.9581C73.1808 17.5527 73.714 17.1191 74.4522 17.1191C74.6515 17.1191 74.8214 17.1484 74.9386 17.1836V18.6895C74.7979 18.6309 74.5636 18.5898 74.3175 18.5898C73.4737 18.5898 72.9815 19.1055 72.9815 19.9902V23.5H71.2706ZM78.2491 18.3496C77.4991 18.3496 76.9601 18.918 76.9015 19.7031H79.5675C79.5323 18.9004 79.0108 18.3496 78.2491 18.3496ZM79.5909 21.5781H81.1612C80.9737 22.8086 79.8487 23.6348 78.296 23.6348C76.3624 23.6348 75.2022 22.3984 75.2022 20.3887C75.2022 18.3848 76.3741 17.084 78.2315 17.084C80.0597 17.084 81.214 18.3203 81.214 20.2305V20.752H76.8839V20.8574C76.8839 21.7539 77.4522 22.3691 78.3253 22.3691C78.9522 22.3691 79.4327 22.0586 79.5909 21.5781Z" fill="black"/>
</svg>
