<svg width="32" height="32" viewBox="0 0 32 32" fill="none" xmlns="http://www.w3.org/2000/svg">
<path d="M25.3469 4H15.9592L6.57143 11.5102H25.3469V4Z" fill="#0F9D58"/>
<path d="M6.57143 4H15.9592V11.5102H6.57143V4Z" fill="#31AA52"/>
<path d="M18.898 23.4286L21.6735 9.46939L28.7755 10.8571L26 24.8163L18.898 23.4286Z" fill="#EB4132"/>
<path d="M22.3265 7.02041L15.9592 8.32653L6 24.8163L25.1837 20.9796L22.3265 7.02041Z" fill="#F8A808"/>
<path d="M3.22449 10.8571L6 24.8163L15.9592 22.8572L15.9592 8.32653L3.22449 10.8571Z" fill="#FBBD00"/>
<path d="M26.0816 13.3061H15.9592L12.9388 20.6531L15.9592 28H26.0816V13.3061Z" fill="#4175DF"/>
<path d="M5.83673 13.3061H15.9592V28H5.83673V13.3061Z" fill="#4086F4"/>
<path d="M19.0612 16.898H23.1429V18.3674H19.0612V16.898Z" fill="#E3E7EA"/>
<path d="M19.0612 19.9184H23.1429V21.3878H19.0612V19.9184Z" fill="#E3E7EA"/>
<path d="M19.0612 22.8572H23.1429V24.3265H19.0612V22.8572Z" fill="#E3E7EA"/>
<path d="M15.9592 19.9184H13.1837V21.3878H15.9592C15.6327 22.6123 14.4898 23.5102 13.1837 23.5102C11.6327 23.5102 10.3265 22.2041 10.3265 20.6531C10.3265 19.1021 11.6327 17.7959 13.1837 17.7959C13.8367 17.7959 14.4898 18.0408 14.9796 18.449L15.9592 17.3061C15.1429 16.6531 14.1633 16.3265 13.1837 16.3265C10.8163 16.3265 8.85714 18.2857 8.85714 20.6531C8.85714 23.0204 10.7347 24.9796 13.1837 24.9796C14.2449 24.9796 15.2245 24.5714 15.9592 24L16.5306 21.3878L15.9592 19.9184Z" fill="white"/>
<path d="M15.9592 19.9184V24C16.9388 23.1837 17.5102 21.9592 17.5102 20.6531V19.9184H15.9592Z" fill="#E3E7EA"/>
</svg>
