<svg width="32" height="32" viewBox="0 0 32 32" fill="none" xmlns="http://www.w3.org/2000/svg">
<path d="M25.5249 16.3178C25.5249 21.4954 21.3276 25.6927 16.15 25.6927C10.9724 25.6927 6.7751 21.4954 6.7751 16.3178C6.7751 11.1402 10.9724 6.94289 16.15 6.94289C21.3276 6.94289 25.5249 11.1402 25.5249 16.3178Z" fill="white"/>
<path d="M16 4C9.40008 4 4.00012 9.39996 4.00012 15.9999C4.00012 22.5998 9.40008 27.9998 16 27.9998C22.6 27.9998 27.9999 22.5998 27.9999 15.9999C27.9999 9.39996 22.6 4 16 4ZM22.525 19.2249C22.525 21.0249 21.025 22.5248 19.225 22.5248H12.775C10.9751 22.5248 9.47508 21.0249 9.47508 19.2249V12.7749C9.47508 10.9749 10.9751 9.47495 12.775 9.47495H19.225C21.025 9.47495 22.525 10.9749 22.525 12.7749V19.2249Z" fill="#BC2A8D"/>
<path d="M19.225 10.8999H12.775C11.7251 10.8999 10.9001 11.7249 10.9001 12.7749V19.2249C10.9001 20.2749 11.7251 21.0999 12.775 21.0999H19.225C20.275 21.0999 21.1 20.2749 21.1 19.2249V12.7749C21.1 11.7249 20.275 10.8999 19.225 10.8999ZM16 19.3749C14.125 19.3749 12.6251 17.8749 12.6251 15.9999C12.6251 14.1249 14.125 12.6249 16 12.6249C17.875 12.6249 19.375 14.1249 19.375 15.9999C19.375 17.8749 17.875 19.3749 16 19.3749ZM19.45 13.3749C19 13.3749 18.625 12.9999 18.625 12.5499C18.625 12.0999 19 11.7249 19.45 11.7249C19.9 11.7249 20.275 12.0999 20.275 12.5499C20.275 12.9999 19.9 13.3749 19.45 13.3749Z" fill="#BC2A8D"/>
<path d="M16 14.0499C14.95 14.0499 14.05 14.9499 14.05 15.9999C14.05 17.0499 14.95 17.9499 16 17.9499C17.05 17.9499 17.95 17.0499 17.95 15.9999C17.95 14.9499 17.05 14.0499 16 14.0499Z" fill="#BC2A8D"/>
</svg>
